# xmcd CD database file
#
# Track frame offsets:
#	150
#	20264
#	29878
#	43640
#	55969
#	67747
#	81685
#	92011
#	101380
#	116677
#	127176
#	140685
#	153282
#	162892
#	174895
#	187733
#	200791
#	225094
#
# Disc length: 3185 seconds
#
# Revision: 1
# Processed by: cddbd v1.5.2PL0 Copyright (c) Steve Scherf et al.
# Submitted via: CDex 1.51
#
DISCID=ec0c6f12
DTITLE=Nina Simone - Gold [CD2)
DYEAR=1900
DGENRE=Blues
TTITLE0=Four Women
TTITLE1=For Myself
TTITLE2=The Other Woman (Live)
TTITLE3=Either Way I Lose
TTITLE4=Break Down And Let It All Out
TTITLE5=Don't You Pay Them No Mind
TTITLE6=I'm Gonna Leave You
TTITLE7=Brown Eyed Handsome Man
TTITLE8=Keeper Of The Flame
TTITLE9=I Hold No Grudge
TTITLE10=Do What You Gotta Do
TTITLE11=Peace Of Mind
TTITLE12=Ain't Got No - I Got Life
TTITLE13=To Love Somebody
TTITLE14=Revolution (Part 1)
TTITLE15=To Be Young, Gifted And Black
TTITLE16=If You Know - Let It Be Me (Live)
TTITLE17=My Baby Just Cares For Me (Live)
EXTD=
EXTT0=
EXTT1=
EXTT2=
EXTT3=
EXTT4=
EXTT5=
EXTT6=
EXTT7=
EXTT8=
EXTT9=
EXTT10=
EXTT11=
EXTT12=
EXTT13=
EXTT14=
EXTT15=
EXTT16=
EXTT17=
PLAYORDER=
